PathFileType	4	(X/Y/Z)	C:\Users\WrightLab\Desktop\Jo\P1.2Trial36.trc
DataRate	CameraRate	NumFrames	NumMarkers	Units	OrigDataRate	OrigDataStartFrame	OrigNumFrames
100.00	100.00	      11	19	mm	100.00	515	      1029
Frame#	Time	Headset_Front			Headset_Back			Headset_Left			Headset_Right			Left_Shoulder			Right_Shoulder			Sternum			C7			Left Elbow			Right Elbow			Left Wrist			Right Wrist			Left ASIS			Right ASIS			S2			Left Knee			Right Knee			Left Ankle			Right Ankle			
		X1	Y1	Z1	X2	Y2	Z2	X3	Y3	Z3	X4	Y4	Z4	X5	Y5	Z5	X6	Y6	Z6	X7	Y7	Z7	X8	Y8	Z8	X9	Y9	Z9	X10	Y10	Z10	X11	Y11	Z11	X12	Y12	Z12	X13	Y13	Z13	X14	Y14	Z14	X15	Y15	Z15	X16	Y16	Z16	X17	Y17	Z17	X18	Y18	Z18	X19	Y19	Z19	

515	5.140				-963.25696	1527.10217	978.39844	-1063.05005	1437.76294	872.83636				-1180.88733	1243.54468	1036.99316				-997.54822	1167.38416	888.15240	-950.39758	1326.37231	1095.66345	-1233.25659	957.07794	1096.76770	-675.76239	1009.43597	1006.22327	-1265.03516	751.47632	968.60822	-622.59314	752.57056	950.16278	-1111.37646	859.35986	958.49573	-842.20679	847.57751	886.94604	-916.20660	928.66083	1195.99365	-1177.80811	450.65536	973.91254	-868.26031	448.20963	917.80243				-916.82153	114.23158	924.87848	
516	5.150				-963.42279	1527.56396	970.98767	-1063.49329	1438.19666	865.72089				-1181.01111	1243.03442	1029.91528				-997.98157	1168.43628	881.14636	-951.67511	1327.42126	1088.66187	-1234.52197	956.60077	1086.82458	-674.70667	1010.91919	997.08545	-1265.70300	751.76154	956.59747	-623.26385	753.97461	936.68298	-1111.07947	859.56995	950.93286	-840.33484	848.83636	878.63757	-915.95966	928.53125	1188.08704	-1180.04810	453.33459	954.36774	-865.39087	447.03571	915.23285				-915.62659	113.36529	924.27917	
517	5.160				-964.52521	1528.69836	963.81030	-1064.29614	1438.68152	858.74036				-1181.22375	1242.70178	1022.94232				-997.79852	1168.44019	872.93774	-951.84985	1327.72144	1081.42834	-1235.09924	955.28021	1076.87207	-673.34747	1012.93640	988.43713	-1266.90637	752.80609	945.59369	-624.74451	754.87268	922.26013	-1111.00964	859.69672	943.22992	-839.21844	849.81573	871.02179	-916.18341	928.90094	1179.84058	-1181.65076	456.55875	935.70288	-861.44330	446.13229	913.70215				-914.95270	112.69516	925.78278	
518	5.170				-965.44806	1529.46912	956.70026	-1065.07935	1438.95337	851.82867				-1181.38684	1242.33130	1015.91614				-997.67249	1169.36511	865.52673	-952.02826	1327.92175	1074.21338	-1236.17334	955.05988	1067.05518	-672.64868	1013.01117	977.91571	-1267.31262	753.94879	933.54968	-626.05750	756.12738	907.36542	-1110.97156	860.10754	935.07629	-837.92651	850.38147	863.10217	-916.24432	928.85394	1172.12195	-1181.51099	463.35556	914.12970	-858.24390	445.12387	911.60406				-914.02563	112.02628	926.25677	
519	5.180				-965.83459	1529.77258	949.50671	-1065.60413	1439.21790	844.86450				-1181.26819	1241.78967	1008.77203				-997.49243	1170.50879	858.08978	-953.10468	1328.69788	1067.14038	-1236.57788	953.98260	1057.27502	-671.50244	1014.02704	968.10797	-1267.87280	754.68701	920.98071	-627.32074	757.49347	893.10803	-1111.19397	860.45532	926.23798	-836.79315	852.14111	855.12219	-917.28278	929.56519	1164.94299	-1180.21277	467.80743	892.16919	-855.25958	443.81638	908.94238				-912.99249	111.44814	926.64777	
520	5.190	-940.19202	1324.19995	715.80347	-967.27466	1530.68103	942.61670	-1066.50696	1439.45178	837.88971				-1181.32800	1241.51880	1001.24274				-996.97235	1171.12378	850.41754	-952.52972	1328.23779	1059.85132	-1236.88318	953.62958	1047.62061	-670.45959	1014.73602	959.12769	-1266.97400	755.09723	910.07764	-628.45703	758.96826	879.26544	-1110.51709	861.14948	917.01776	-835.81647	853.14825	848.11731	-917.34399	929.18268	1156.80981	-1179.21460	469.41025	878.36841	-852.06464	441.84161	907.65186				-912.13568	110.96913	928.01361	
521	5.200	-940.46277	1325.33215	707.63959	-967.70282	1530.78406	935.55084	-1067.11499	1439.52637	830.92041				-1181.39624	1241.29443	993.55310				-996.03796	1171.62915	843.09479	-954.24133	1329.11841	1052.99731	-1237.46667	953.35590	1038.23572	-669.50861	1015.78992	951.22668	-1268.14819	757.70544	895.37738	-630.35596	759.99011	864.90680	-1110.34265	861.26721	907.47821	-834.79736	853.51111	840.57690	-918.38403	929.42053	1148.80688	-1176.82251	476.99423	855.36401	-847.39948	439.58948	906.49146				-910.87268	110.25522	926.57568	
522	5.210	-940.78674	1325.94397	701.53699	-969.20209	1531.23523	928.81213	-1067.57861	1439.60913	823.85809				-1181.39514	1241.00635	985.65271				-995.25092	1172.23315	835.35565	-954.09167	1328.95447	1045.78381	-1237.02893	952.97015	1028.83740	-668.81201	1015.83929	941.51178	-1266.95593	757.66071	886.17114	-630.51398	761.67847	848.70990	-1110.33765	861.35895	897.96094	-833.81158	854.46832	833.59540	-921.41876	928.81793	1139.89490	-1175.03699	479.67786	840.79761	-844.58563	438.07233	904.72070	-1151.31299	224.78583	1125.44434	-910.35333	110.64628	926.95978	
523	5.220	-940.66254	1326.83191	693.17761	-969.51910	1531.37378	921.75690	-1068.24463	1439.70837	816.72070				-1181.55676	1240.89697	977.42590				-994.16895	1172.61584	827.74298	-954.58051	1328.77185	1038.74072	-1236.55798	952.17957	1019.56573	-667.77045	1016.88617	934.22864	-1267.88782	760.14410	871.39972	-632.12299	763.18195	836.38025	-1110.04651	861.40448	888.11584	-832.47278	855.20587	827.96436	-922.84918	929.05328	1133.61353	-1173.52393	484.70786	824.56024	-841.90973	436.17377	903.92017	-1157.20056	220.17606	1099.81946	-910.07605	110.68063	926.71143	
524	5.230	-940.49591	1327.64465	685.80511	-971.26666	1531.98596	915.02289	-1068.61743	1439.65845	809.59076				-1181.54785	1240.61523	968.91901				-993.50348	1173.36072	819.89673	-955.56140	1329.02917	1031.71912	-1237.07776	952.71027	1010.68848	-667.28333	1016.85083	925.72443	-1266.47375	759.94928	861.68848	-633.64709	764.58179	822.18866	-1109.62378	861.83832	878.08148	-831.01862	855.09906	821.77991	-925.07806	928.52209	1125.96606	-1169.12073	488.49316	806.39276	-839.02673	434.67719	903.62695	-1162.78186	214.81534	1073.82361	-910.15662	109.62406	927.64746	
525	5.240	-940.33966	1328.34290	678.28436	-970.88416	1531.47388	907.74133	-1068.88086	1439.37610	802.44702				-1181.44031	1240.21960	960.35510				-992.01672	1173.40515	812.68860	-955.57574	1328.77759	1024.46460	-1236.24243	951.75903	1001.56415	-666.93585	1017.91180	918.76221	-1266.05273	760.81989	850.36646	-635.96124	766.18829	808.42950	-1109.16101	861.85919	867.98529	-830.00464	855.77734	815.27924	-927.26160	928.18921	1117.39514	-1165.51660	493.03802	790.01099	-836.93634	432.50354	900.93597	-1168.35632	209.04668	1047.20984	-910.85156	108.45034	929.92767	
